<svg xmlns="http://www.w3.org/2000/svg" viewBox="0 0 120 80" width="120" height="80">
  <!-- Fox body -->
  <ellipse cx="60" cy="55" rx="25" ry="20" fill="#D2743C"/>
  
  <!-- Fox head -->
  <ellipse cx="60" cy="35" rx="18" ry="16" fill="#E8955A"/>
  
  <!-- Fox ears -->
  <ellipse cx="50" cy="22" rx="6" ry="12" fill="#D2743C"/>
  <ellipse cx="70" cy="22" rx="6" ry="12" fill="#D2743C"/>
  <ellipse cx="50" cy="25" rx="3" ry="8" fill="#F4A261"/>
  <ellipse cx="70" cy="25" rx="3" ry="8" fill="#F4A261"/>
  
  <!-- Fox tail -->
  <ellipse cx="35" cy="50" rx="15" ry="8" fill="#D2743C" transform="rotate(-30 35 50)"/>
  <ellipse cx="32" cy="47" rx="8" ry="4" fill="#F4A261" transform="rotate(-30 32 47)"/>
  
  <!-- Fox snout -->
  <ellipse cx="60" cy="42" rx="8" ry="6" fill="#F4A261"/>
  
  <!-- Fox nose -->
  <ellipse cx="60" cy="38" rx="2" ry="1.5" fill="#8B4513"/>
  
  <!-- Fox eyes -->
  <circle cx="55" cy="32" r="2" fill="#2C1810"/>
  <circle cx="65" cy="32" r="2" fill="#2C1810"/>
  <circle cx="55.5" cy="31.5" r="0.5" fill="#FFFFFF"/>
  <circle cx="65.5" cy="31.5" r="0.5" fill="#FFFFFF"/>
  
  <!-- Fox legs -->
  <ellipse cx="50" cy="68" rx="4" ry="8" fill="#D2743C"/>
  <ellipse cx="70" cy="68" rx="4" ry="8" fill="#D2743C"/>
  <ellipse cx="50" cy="76" rx="3" ry="2" fill="#8B4513"/>
  <ellipse cx="70" cy="76" rx="3" ry="2" fill="#8B4513"/>
</svg>